<?xml version="1.0" encoding="UTF-8"?>
<svg version="1.1" xmlns="http://www.w3.org/2000/svg" width="512" height="512">
<path d="M0 0 C1.28680664 0.14985352 2.57361328 0.29970703 3.89941406 0.45410156 C11.64654282 1.40063792 19.32474314 2.58818049 27 4 C27.96244629 4.17225098 28.92489258 4.34450195 29.91650391 4.52197266 C71.10316 12.07320823 110.67327414 28.92962112 135.60327148 63.90283203 C155.65452478 93.02699837 163.83868168 128.36892272 168.25 162.9375 C168.40114258 164.11183594 168.55228516 165.28617188 168.70800781 166.49609375 C169.20067581 170.6598612 169.61752471 174.82485303 170 179 C170.08720306 179.93122681 170.17440613 180.86245361 170.26425171 181.82189941 C172.20611042 203.3713417 172.34335845 224.87717041 172.31567383 246.49755859 C172.31105985 250.39806708 172.31791842 254.2982624 172.33618164 258.19873047 C172.50057901 293.66999258 171.33114337 329.01600852 165 364 C164.74162354 365.45019531 164.74162354 365.45019531 164.47802734 366.9296875 C156.91240144 408.17387523 140.04780456 447.69757964 105.0246582 472.67578125 C75.91128882 492.67018563 40.59116933 500.84377436 6.0625 505.25 C4.88816406 505.40114258 3.71382813 505.55228516 2.50390625 505.70800781 C-1.6598612 506.20067581 -5.82485303 506.61752471 -10 507 C-10.93122681 507.08720306 -11.86245361 507.17440613 -12.82189941 507.26425171 C-34.3713417 509.20611042 -55.87717041 509.34335845 -77.49755859 509.31567383 C-81.39806708 509.31105985 -85.2982624 509.31791842 -89.19873047 509.33618164 C-124.66999258 509.50057901 -160.01600852 508.33114337 -195 502 C-196.45019531 501.74162354 -196.45019531 501.74162354 -197.9296875 501.47802734 C-239.11092979 493.92394784 -278.67648617 477.06587287 -303.60327148 442.09716797 C-323.65452478 412.97300163 -331.83868168 377.63107728 -336.25 343.0625 C-336.40114258 341.88816406 -336.55228516 340.71382813 -336.70800781 339.50390625 C-337.20067581 335.3401388 -337.61752471 331.17514697 -338 327 C-338.08720306 326.06877319 -338.17440613 325.13754639 -338.26425171 324.17810059 C-340.20611042 302.6286583 -340.34335845 281.12282959 -340.31567383 259.50244141 C-340.31105985 255.60193292 -340.31791842 251.7017376 -340.33618164 247.80126953 C-340.43071545 227.39369856 -340.22754372 207.09188306 -338.625 186.73828125 C-338.56370218 185.9567783 -338.50240437 185.17527534 -338.43924904 184.37009048 C-334.91301232 140.59344222 -327.34388132 91.56878105 -298 57 C-297.28328125 56.14535156 -296.5665625 55.29070313 -295.828125 54.41015625 C-268.17680362 22.5915258 -229.32911769 10.26357765 -189 3 C-188.12472656 2.83661133 -187.24945313 2.67322266 -186.34765625 2.50488281 C-180.25739321 1.39233476 -174.1552938 0.65087883 -168 0 C-166.80020508 -0.13535156 -165.60041016 -0.27070312 -164.36425781 -0.41015625 C-110.90645788 -6.26621242 -53.41537639 -6.25228236 0 0 Z " fill="#1075F9" transform="translate(340,3)"/>
<path d="M0 0 C1.60450516 0.00181274 1.60450516 0.00181274 3.24142456 0.00366211 C40.82322532 0.11856438 78.06711224 5.91727345 105.8125 33.375 C126.81526416 55.52147904 132.1657591 84.56241695 132.1875 114 C132.19049103 115.06838608 132.19049103 115.06838608 132.19354248 116.15835571 C132.18416403 145.69323882 123.69007688 173.14014334 103.25 195.03515625 C75.69127026 221.48977022 36.41981697 227.61470391 -0.25 227.5625 C-1.33590927 227.56209213 -1.33590927 227.56209213 -2.4437561 227.56167603 C-14.13622017 227.54156293 -25.59750715 226.94855203 -37.1875 225.375 C-39.18482332 225.11922477 -41.18222321 224.86404695 -43.1796875 224.609375 C-47.0499548 224.10512071 -50.91926898 223.59547332 -54.78515625 223.05859375 C-55.56383057 222.95087646 -56.34250488 222.84315918 -57.14477539 222.73217773 C-59.1875 222.375 -59.1875 222.375 -62.1875 221.375 C-62.1875 150.095 -62.1875 78.815 -62.1875 5.375 C-43.41382522 1.85493598 -43.41382522 1.85493598 -35.69921875 1.2109375 C-34.78242844 1.13177094 -33.86563812 1.05260437 -32.92106628 0.97103882 C-21.95746066 0.09865805 -10.99329548 -0.02316387 0 0 Z " fill="#FDFEFE" transform="translate(310.1875,139.625)"/>
<path d="M0 0 C16.5 0 33 0 50 0 C50.04522776 20.89765882 50.08203619 41.79527772 50.10362434 62.69297314 C50.11391658 72.39713995 50.1279375 82.10127409 50.15087891 91.80541992 C50.17087581 100.26811713 50.18373134 108.73079065 50.18817699 117.19351083 C50.19077374 121.67029364 50.19683403 126.14700875 50.21146011 130.62376976 C50.2251438 134.84672689 50.22920108 139.06958911 50.22621536 143.2925663 C50.22676074 144.83355349 50.23067342 146.37454422 50.23841095 147.91551208 C50.34179618 169.58799047 46.70375042 190.40847966 31.4375 206.7734375 C15.07970963 221.71564986 -5.4886475 226.38007394 -27.06933594 226.26074219 C-29.36420304 226.2500503 -31.65828199 226.26067747 -33.953125 226.2734375 C-52.24331021 226.29228447 -68.10568837 222.83703029 -84.375 214.375 C-85.49116699 213.79866821 -85.49116699 213.79866821 -86.62988281 213.21069336 C-91.87465679 210.37602962 -91.87465679 210.37602962 -93 207 C-92.0538373 204.2946686 -91.03727552 201.73830521 -89.88671875 199.12109375 C-89.39230034 197.96928368 -89.39230034 197.96928368 -88.88789368 196.79420471 C-88.18869782 195.17080663 -87.48480787 193.54942349 -86.77661133 191.92993164 C-85.69216432 189.44817429 -84.62327039 186.96016235 -83.55664062 184.47070312 C-82.87590935 182.89544006 -82.19429799 181.32055696 -81.51171875 179.74609375 C-81.03033699 178.62732094 -81.03033699 178.62732094 -80.53923035 177.48594666 C-78.23216392 172.23216392 -78.23216392 172.23216392 -76 170 C-75.42668945 170.28721924 -74.85337891 170.57443848 -74.26269531 170.87036133 C-57.32694074 179.299177 -39.10459395 187.76226216 -19.8125 181.75 C-18.52542547 181.2034341 -17.25230595 180.62211328 -16 180 C-15.36964844 179.73316406 -14.73929687 179.46632813 -14.08984375 179.19140625 C-7.95831083 176.26233001 -5.539108 171.2321268 -2.75 165.375 C-1.17794683 160.39683164 -0.87087056 155.51259997 -0.84178162 150.31814575 C-0.83437465 149.34877935 -0.83437465 149.34877935 -0.82681805 148.35982978 C-0.81154148 146.2088017 -0.80310936 144.05780324 -0.79467773 141.90673828 C-0.78509146 140.3590723 -0.77508094 138.81140889 -0.76467896 137.26374817 C-0.73770505 133.07210492 -0.71665493 128.88045051 -0.69667697 124.68876886 C-0.67477093 120.3045261 -0.64740488 115.92031748 -0.62062073 111.53610229 C-0.57075619 103.23835968 -0.52579427 94.94059805 -0.48259836 86.64281833 C-0.4331726 77.19422699 -0.3782743 67.74566992 -0.32291877 58.29711175 C-0.20919452 38.8647716 -0.10305713 19.43239985 0 0 Z " fill="#FDFDFE" transform="translate(150,142)"/>
<path d="M0 0 C14.48473318 8.94700684 21.37441043 22.63582207 25.26611328 38.76831055 C29.79474356 59.39378137 27.8523118 85.22766134 16.56396484 103.50683594 C11.97969306 110.32675056 6.85867234 116.50647353 -0.3125 120.6875 C-1.60027344 121.45126953 -1.60027344 121.45126953 -2.9140625 122.23046875 C-22.72436095 133.0433675 -44.01143013 131.6875 -66.3125 131.6875 C-66.3125 85.1575 -66.3125 38.6275 -66.3125 -9.3125 C-45.64709672 -14.47885082 -18.53034349 -10.25131626 0 0 Z " fill="#1175F9" transform="translate(364.3125,192.3125)"/>
</svg>
